<?xml version="1.0" encoding="utf-8"?>
<COLLADA version="1.5.0" xmlns="http://www.collada.org/2008/03/COLLADASchema">
  <asset>
    <contributor />
    <unit meter="1" />
    <up_axis>Z_UP</up_axis>
  </asset>
  <library_lights />
  <library_materials />
  <library_effects />
  <library_cameras />
  <library_geometries>
    <geometry id="mesh_1">
      <mesh>
        <source id="mesh_1-position" name="position">
          <float_array id="mesh_1-position-array" count="435">-24 -17.388999938964844 13.388999938964844 -8 -17.388999938964844 13.388999938964844 -8 -16.847999572753906 13.86299991607666 -8 -15.604999542236328 14.581000328063965 -24 -14.923999786376953 14.812999725341797 -24 -15.604999542236328 14.581000328063965 -24 -16.25 14.262999534606934 -24 -16.847999572753906 13.86299991607666 -8 -18.812999725341797 10.923999786376953 -24 -18.58099937438965 11.604999542236328 -24 -18.812999725341797 10.923999786376953 -24 -18.952999114990234 10.218000411987305 -24 -12.076000213623047 4.186999797821045 -8 -12.076000213623047 4.186999797821045 -24 -12.781999588012695 4.046999931335449 -24 -11.395000457763672 4.419000148773193 -24 -9.611000061035156 5.611000061035156 -8 -9.611000061035156 5.611000061035156 -24 -10.152000427246094 5.13700008392334 -24 -9.13700008392334 6.1519999504089355 -8 -17.388999938964844 5.611000061035156 -24 -17.863000869750977 6.1519999504089355 -24 -17.388999938964844 5.611000061035156 -24 -16.847999572753906 5.13700008392334 -24 -8.187000274658203 10.923999786376953 -24 -8.04699993133545 10.218000411987305 -24 -8 9.5 -24 -8.04699993133545 8.781999588012695 -24 -14.218000411987305 14.95300006866455 -24 -13.5 15 -24 -12.781999588012695 14.95300006866455 -24 -12.076000213623047 14.812999725341797 -24 -11.395000457763672 14.581000328063965 -24 -10.75 14.262999534606934 -24 -10.152000427246094 13.86299991607666 -24 -9.611000061035156 13.388999938964844 -24 -9.13700008392334 12.847999572753906 -24 -8.737000465393066 12.25 -24 -8.418999671936035 11.604999542236328 -24 -19 9.5 -24 -18.26300048828125 12.25 -24 -17.863000869750977 12.847999572753906 -24 -18.952999114990234 8.781999588012695 -24 -8.187000274658203 8.076000213623047 -24 -8.737000465393066 6.75 -24 -10.75 4.736999988555908 -24 -8.418999671936035 7.394999980926514 -24 -13.5 4 -24 -14.218000411987305 4.046999931335449 -24 -14.923999786376953 4.186999797821045 -24 -15.604999542236328 4.419000148773193 -24 -16.25 4.736999988555908 -24 -18.26300048828125 6.75 -24 -18.58099937438965 7.394999980926514 -24 -18.812999725341797 8.076000213623047 -8 -22.65999984741211 5 -8 -23.23900032043457 6.172999858856201 -8 -18.58099937438965 7.394999980926514 -8 -18.812999725341797 8.076000213623047 -8 -23.659000396728516 7.4120001792907715 -8 -18.952999114990234 8.781999588012695 -8 -23.913999557495117 8.694999694824219 -8 -19 9.5 -8 -24 10 -8 -23.913999557495117 11.305000305175781 -8 -18.952999114990234 10.218000411987305 -8 -23.659000396728516 12.588000297546387 -8 -23.23900032043457 13.82699966430664 -8 -18.58099937438965 11.604999542236328 -8 -22.65999984741211 15 -8 -18.26300048828125 12.25 -8 -21.93400001525879 16.08799934387207 -8 -17.863000869750977 12.847999572753906 -8 -18.26300048828125 6.75 -8 -11.395000457763672 4.419000148773193 -8 -10.17300033569336 0.7609999775886536 -8 -11.411999702453613 0.3409999907016754 -8 -12.781999588012695 4.046999931335449 -8 -12.694999694824219 0.0860000029206276 -8 -14 2.2737368624290214E-16 -8 -13.5 4 -8 -9 1.340000033378601 -8 -15.305000305175781 0.0860000029206276 -8 -14.218000411987305 4.046999931335449 -8 -17.863000869750977 6.1519999504089355 -8 -21.070999145507812 2.928999900817871 -8 -20.08799934387207 2.065999984741211 -8 -16.25 4.736999988555908 -8 -15.604999542236328 4.419000148773193 -8 -17.82699966430664 0.7609999775886536 -8 -16.847999572753906 5.13700008392334 -8 -19 1.340000033378601 -8 -4.341000080108643 7.4120001792907715 -8 -4.085999965667725 8.694999694824219 12 -14 10 -8 -4 10 -8 -4.085999965667725 11.305000305175781 -8 -4.341000080108643 12.588000297546387 -8 -4.761000156402588 13.82699966430664 -8 -5.340000152587891 15 -8 -6.065999984741211 16.08799934387207 -8 -6.928999900817871 17.070999145507812 -8 -7.9120001792907715 17.93400001525879 -8 -9 18.65999984741211 -8 -10.17300033569336 19.23900032043457 -8 -11.411999702453613 19.659000396728516 -8 -12.694999694824219 19.913999557495117 -8 -14 20 -8 -15.305000305175781 19.913999557495117 -8 -4.761000156402588 6.172999858856201 -8 -16.58799934387207 19.659000396728516 -8 -17.82699966430664 19.23900032043457 -8 -19 18.65999984741211 -8 -20.08799934387207 17.93400001525879 -8 -21.070999145507812 17.070999145507812 -8 -21.93400001525879 3.9119999408721924 -8 -8.187000274658203 10.923999786376953 -8 -8.04699993133545 10.218000411987305 -8 -8.418999671936035 11.604999542236328 -8 -8 9.5 -8 -6.065999984741211 3.9119999408721924 -8 -8.737000465393066 6.75 -8 -5.340000152587891 5 -8 -8.418999671936035 7.394999980926514 -8 -8.187000274658203 8.076000213623047 -8 -14.218000411987305 14.95300006866455 -8 -13.5 15 -8 -12.781999588012695 14.95300006866455 -8 -12.076000213623047 14.812999725341797 -8 -10.152000427246094 13.86299991607666 -8 -11.395000457763672 14.581000328063965 -8 -8.737000465393066 12.25 -8 -10.75 14.262999534606934 -8 -14.923999786376953 14.812999725341797 -8 -8.04699993133545 8.781999588012695 -8 -9.13700008392334 12.847999572753906 -8 -9.611000061035156 13.388999938964844 -8 -16.58799934387207 0.3409999907016754 -8 -16.25 14.262999534606934 -8 -14.923999786376953 4.186999797821045 -8 -7.9120001792907715 2.065999984741211 -8 -6.928999900817871 2.928999900817871 -8 -10.75 4.736999988555908 -8 -10.152000427246094 5.13700008392334 -8 -9.13700008392334 6.1519999504089355 </float_array>
          <technique_common>
            <accessor source="#mesh_1-position-array" count="145" stride="3">
              <param name="X" type="float" />
              <param name="Y" type="float" />
              <param name="Z" type="float" />
            </accessor>
          </technique_common>
        </source>
        <source id="mesh_1-normal" name="normal">
          <float_array id="mesh_1-normal-array" count="291">0 -0.65899658203125 0.7521458864212036 0 -0.3224758207798004 0.9465777277946472 0 -0.44220054149627686 0.8969162106513977 0 -0.9465777277946472 0.3224758207798004 0 -0.98089998960495 0.194512739777565 0 0.194512739777565 -0.98089998960495 0 0.3224758207798004 -0.9465777277946472 0 0.65899658203125 -0.7521458864212036 0 0.7521458864212036 -0.65899658203125 0 -0.7521458864212036 -0.65899658203125 0 -0.65899658203125 -0.7521458864212036 -1 0 0 0.44643309712409973 0.8776501417160034 -0.17443552613258362 0.446438729763031 0.892877459526062 -0.05884096771478653 0.446438729763031 0.892877459526062 0.05884096771478653 0.446438729763031 -0.05884096771478653 -0.892877459526062 0.44643309712409973 0.8776501417160034 0.17443552613258362 0.4464460015296936 0.8474445343017578 0.28726935386657715 0.44644758105278015 0.8023838400840759 0.39606156945228577 0.4464540183544159 0.7443135380744934 0.4966650903224945 0.4464460015296936 0.28726935386657715 -0.8474445343017578 0.4464561641216278 0.6724342107772827 0.59034663438797 0.4464561641216278 0.59034663438797 0.6724342107772827 0.4464540183544159 0.4966650903224945 0.7443135380744934 0.44644758105278015 0.39606156945228577 0.8023838400840759 0.4464460015296936 0.28726935386657715 0.8474445343017578 0.44643309712409973 0.17443552613258362 0.8776501417160034 0.446438729763031 0.05884096771478653 0.892877459526062 0.446438729763031 -0.05884096771478653 0.892877459526062 0.4464460015296936 0.8474445343017578 -0.28726935386657715 0.44643309712409973 -0.17443552613258362 0.8776501417160034 0.4464460015296936 -0.28726935386657715 0.8474445343017578 0.44644758105278015 -0.39606156945228577 0.8023838400840759 0.4464540183544159 -0.4966650903224945 0.7443135380744934 0.4464561641216278 -0.59034663438797 0.6724342107772827 0.4464561641216278 -0.6724342107772827 0.59034663438797 0.4464540183544159 -0.7443135380744934 0.4966650903224945 0.44644758105278015 -0.8023838400840759 0.39606156945228577 0.4464460015296936 -0.8474445343017578 0.28726935386657715 0.44643309712409973 -0.8776501417160034 0.17443552613258362 0.446438729763031 -0.892877459526062 -0.05884096771478653 0.44643309712409973 -0.8776501417160034 -0.17443552613258362 0.4464460015296936 -0.8474445343017578 -0.28726935386657715 0.44644758105278015 -0.8023838400840759 -0.39606156945228577 0.4464540183544159 -0.7443135380744934 -0.4966650903224945 0.4464561641216278 -0.6724342107772827 -0.59034663438797 0.446438729763031 -0.892877459526062 0.05884096771478653 0 0.98089998960495 -0.194512739777565 0 0.8969162106513977 0.44220054149627686 0 0.8311939239501953 0.5559825897216797 0 0.7521458864212036 0.65899658203125 0 0.65899658203125 0.7521458864212036 0.4464561641216278 -0.59034663438797 -0.6724342107772827 0.4464540183544159 -0.4966650903224945 -0.7443135380744934 0.44644758105278015 -0.39606156945228577 -0.8023838400840759 0.4464460015296936 -0.28726935386657715 -0.8474445343017578 0.44643309712409973 -0.17443552613258362 -0.8776501417160034 0 0.5559825897216797 0.8311939239501953 0 0.44220054149627686 0.8969162106513977 0 0.3224758207798004 0.9465777277946472 0 0.194512739777565 0.98089998960495 0 0.06531981378793716 0.9978643655776978 0 -0.06531981378793716 0.9978643655776978 0 -0.194512739777565 0.98089998960495 0 -0.5559825897216797 0.8311939239501953 0 -0.9978643655776978 -0.06531981378793716 0 -0.98089998960495 -0.194512739777565 0 -0.7521458864212036 0.65899658203125 0 -0.8311939239501953 0.5559825897216797 0 -0.8969162106513977 0.44220054149627686 0 -0.9978643655776978 0.06531981378793716 0 0.9465777277946472 -0.3224758207798004 0.4464561641216278 0.59034663438797 -0.6724342107772827 0 -0.44220054149627686 -0.8969162106513977 0.4464561641216278 0.6724342107772827 -0.59034663438797 0 -0.3224758207798004 -0.9465777277946472 0.4464540183544159 0.7443135380744934 -0.4966650903224945 0 -0.194512739777565 -0.98089998960495 0 -0.06531981378793716 -0.9978643655776978 0 0.06531981378793716 -0.9978643655776978 0 0.44220054149627686 -0.8969162106513977 0.446438729763031 0.05884096771478653 -0.892877459526062 0 0.5559825897216797 -0.8311939239501953 0.44643309712409973 0.17443552613258362 -0.8776501417160034 0.44644758105278015 0.39606156945228577 -0.8023838400840759 0.4464540183544159 0.4966650903224945 -0.7443135380744934 0 0.8311939239501953 -0.5559825897216797 0 0.8969162106513977 -0.44220054149627686 0.44644758105278015 0.8023838400840759 -0.39606156945228577 0 -0.9465777277946472 -0.3224758207798004 0 -0.8969162106513977 -0.44220054149627686 0 -0.8311939239501953 -0.5559825897216797 0 -0.5559825897216797 -0.8311939239501953 0 0.9978643655776978 -0.06531981378793716 0 0.9978643655776978 0.06531981378793716 0 0.98089998960495 0.194512739777565 0 0.9465777277946472 0.3224758207798004 </float_array>
          <technique_common>
            <accessor source="#mesh_1-normal-array" count="97" stride="3">
              <param name="X" type="float" />
              <param name="Y" type="float" />
              <param name="Z" type="float" />
            </accessor>
          </technique_common>
        </source>
        <vertices id="mesh_1-vertices">
          <input semantic="POSITION" source="#mesh_1-position" />
        </vertices>
        <triangles material="default" count="286">
          <input semantic="VERTEX" source="#mesh_1-vertices" offset="0" />
          <input semantic="NORMAL" source="#mesh_1-normal" offset="1" />
          <p>0 0 1 0 2 0 3 1 4 1 5 1 5 2 6 2 3 2 7 0 0 0 2 0 8 3 9 3 10 3 10 4 11 4 8 4 12 5 13 5 14 5 13 6 12 6 15 6 16 7 17 7 18 7 17 8 16 8 19 8 20 9 21 9 22 9 20 10 22 10 23 10 24 11 25 11 7 11 25 11 26 11 7 11 26 11 27 11 7 11 7 11 6 11 5 11 7 11 5 11 4 11 7 11 4 11 28 11 7 11 28 11 29 11 7 11 29 11 30 11 7 11 30 11 31 11 7 11 31 11 32 11 7 11 32 11 33 11 7 11 33 11 34 11 7 11 34 11 35 11 7 11 35 11 36 11 7 11 36 11 37 11 7 11 37 11 38 11 38 11 24 11 7 11 10 11 9 11 11 11 39 11 11 11 9 11 39 11 9 11 40 11 39 11 40 11 41 11 39 11 41 11 0 11 0 11 7 11 39 11 39 11 7 11 42 11 27 11 43 11 7 11 19 11 7 11 44 11 16 11 7 11 19 11 18 11 7 11 16 11 45 11 7 11 18 11 15 11 7 11 45 11 46 11 44 11 7 11 12 11 7 11 15 11 14 11 7 11 12 11 47 11 7 11 14 11 48 11 7 11 47 11 49 11 7 11 48 11 50 11 7 11 49 11 51 11 7 11 50 11 43 11 46 11 7 11 21 11 7 11 22 11 52 11 7 11 21 11 53 11 7 11 52 11 23 11 22 11 7 11 54 11 7 11 53 11 42 11 7 11 54 11 51 11 23 11 7 11 55 11 56 11 57 11 58 11 57 11 56 11 56 11 59 11 58 11 60 11 58 11 59 11 59 11 61 11 60 11 62 11 60 11 61 11 63 11 62 11 61 11 64 11 65 11 63 11 66 11 8 11 64 11 67 11 68 11 66 11 69 11 70 11 67 11 71 11 72 11 69 11 57 11 73 11 55 11 13 11 74 11 75 11 75 11 76 11 13 11 77 11 13 11 76 11 78 11 77 11 76 11 79 11 80 11 78 11 81 11 75 11 74 11 82 11 83 11 79 11 77 11 78 11 80 11 84 11 20 11 85 11 86 11 85 11 20 11 87 11 88 11 89 11 90 11 87 11 91 11 92 12 93 12 94 12 93 13 95 13 94 13 95 14 96 14 94 14 79 15 94 15 82 15 96 16 97 16 94 16 97 17 98 17 94 17 98 18 99 18 94 18 99 19 100 19 94 19 76 20 75 20 94 20 100 21 101 21 94 21 101 22 102 22 94 22 102 23 103 23 94 23 103 24 104 24 94 24 104 25 105 25 94 25 105 26 106 26 94 26 106 27 107 27 94 27 107 28 108 28 94 28 109 29 92 29 94 29 108 30 110 30 94 30 110 31 111 31 94 31 111 32 112 32 94 32 112 33 113 33 94 33 113 34 114 34 94 34 114 35 71 35 94 35 71 36 69 36 94 36 69 37 67 37 94 37 67 38 66 38 94 38 66 39 64 39 94 39 94 40 63 40 61 40 94 41 61 41 59 41 59 42 56 42 94 42 94 43 56 43 55 43 94 44 55 44 115 44 115 45 85 45 94 45 94 46 64 46 63 46 97 11 96 11 116 11 117 11 116 11 96 11 95 11 117 11 96 11 116 11 118 11 97 11 93 11 119 11 95 11 119 11 117 11 95 11 98 11 97 11 118 11 120 11 121 11 122 11 122 11 123 11 109 11 92 11 109 11 124 11 108 11 107 11 125 11 126 11 125 11 107 11 107 11 106 11 126 11 127 11 126 11 106 11 105 11 127 11 106 11 104 11 128 11 105 11 101 11 129 11 102 11 103 11 130 11 104 11 118 11 131 11 98 11 102 11 132 11 103 11 125 11 133 11 108 11 2 11 1 11 113 11 112 11 2 11 113 11 93 11 92 11 134 11 43 47 27 47 134 47 134 11 119 11 93 11 99 11 98 11 131 11 131 11 135 11 99 11 100 11 99 11 135 11 37 48 131 48 118 48 135 11 136 11 100 11 37 49 36 49 131 49 135 49 131 49 36 49 132 11 102 11 129 11 129 11 101 11 136 11 135 50 36 50 136 50 35 50 136 50 36 50 130 11 103 11 132 11 35 51 34 51 129 51 35 51 129 51 136 51 94 52 85 52 86 52 86 53 91 53 94 53 89 54 94 54 91 54 137 55 94 55 89 55 94 56 137 56 82 56 128 11 104 11 130 11 132 57 129 57 33 57 34 57 33 57 129 57 100 11 136 11 101 11 33 58 32 58 130 58 33 58 130 58 132 58 32 59 31 59 128 59 32 59 128 59 130 59 127 11 105 11 128 11 127 60 128 60 30 60 31 60 30 60 128 60 110 11 108 11 133 11 30 61 29 61 126 61 30 61 126 61 127 61 111 11 110 11 3 11 133 11 3 11 110 11 28 62 125 62 126 62 28 62 126 62 29 62 28 63 4 63 133 63 28 63 133 63 125 63 4 1 3 1 133 1 3 2 6 2 138 2 6 64 7 64 138 64 115 11 55 11 73 11 42 65 60 65 62 65 42 65 62 65 39 65 54 66 60 66 42 66 3 11 138 11 111 11 112 11 111 11 138 11 138 11 2 11 112 11 114 11 113 11 1 11 71 11 114 11 1 11 2 64 138 64 7 64 1 11 72 11 71 11 70 11 69 11 72 11 72 67 1 67 41 67 0 67 41 67 1 67 68 11 67 11 70 11 70 68 72 68 40 68 41 68 40 68 72 68 8 11 66 11 68 11 40 69 9 69 68 69 40 69 68 69 70 69 9 3 8 3 68 3 65 11 64 11 8 11 62 11 63 11 65 11 8 4 11 4 65 4 11 70 39 70 62 70 11 70 62 70 65 70 124 11 109 11 123 11 123 11 122 11 121 11 124 11 134 11 92 11 123 71 46 71 124 71 43 71 124 71 46 71 134 47 124 47 43 47 88 11 139 11 137 11 82 11 137 11 139 11 94 72 140 72 141 72 87 73 51 73 88 73 50 73 88 73 51 73 120 74 94 74 141 74 49 75 139 75 88 75 49 75 88 75 50 75 122 76 94 76 120 76 82 11 139 11 83 11 80 11 79 11 83 11 139 77 49 77 83 77 48 77 83 77 49 77 47 78 80 78 83 78 47 78 83 78 48 78 74 11 142 11 81 11 14 79 77 79 80 79 14 79 80 79 47 79 140 11 81 11 142 11 142 11 143 11 140 11 14 5 13 5 77 5 141 11 140 11 143 11 143 11 17 11 141 11 15 6 74 6 13 6 17 11 144 11 141 11 45 80 142 80 74 80 45 80 74 80 15 80 120 11 141 11 144 11 78 81 94 81 79 81 142 82 45 82 143 82 18 82 143 82 45 82 78 83 76 83 94 83 121 11 120 11 144 11 17 7 143 7 18 7 19 8 144 8 17 8 94 84 75 84 81 84 140 85 94 85 81 85 44 86 121 86 144 86 44 86 144 86 19 86 46 87 123 87 121 87 46 87 121 87 44 87 73 11 84 11 115 11 85 11 115 11 84 11 58 66 60 66 54 66 122 88 109 88 94 88 58 89 54 89 57 89 53 89 57 89 54 89 20 11 90 11 86 11 53 90 52 90 73 90 53 90 73 90 57 90 91 11 86 11 90 11 52 91 21 91 84 91 52 91 84 91 73 91 137 11 89 11 88 11 21 9 20 9 84 9 89 11 91 11 87 11 23 10 90 10 20 10 23 92 51 92 90 92 87 92 90 92 51 92 26 93 119 93 27 93 134 93 27 93 119 93 26 94 25 94 119 94 117 94 119 94 25 94 117 95 25 95 116 95 24 95 116 95 25 95 38 96 116 96 24 96 118 96 116 96 38 96 37 48 118 48 38 48</p>
        </triangles>
      </mesh>
    </geometry>
  </library_geometries>
  <library_images />
  <library_visual_scenes>
    <visual_scene id="Scene">
      <node id="node_1" sid="node_1" type="NODE">
        <matrix>1 0 0 0 0 1 0 0 0 0 1 0 0 0 0 1</matrix>
        <instance_geometry url="#mesh_1" />
      </node>
    </visual_scene>
  </library_visual_scenes>
  <library_animations />
  <scene>
    <instance_visual_scene url="#Scene" />
  </scene>
</COLLADA>